G04 #@! TF.GenerationSoftware,KiCad,Pcbnew,9.0.6*
G04 #@! TF.CreationDate,2025-12-24T12:46:37+05:30*
G04 #@! TF.ProjectId,Podium1,506f6469-756d-4312-9e6b-696361645f70,rev?*
G04 #@! TF.SameCoordinates,PX36bdac0PY4ead9a0*
G04 #@! TF.FileFunction,Copper,L2,Bot*
G04 #@! TF.FilePolarity,Positive*
%FSLAX46Y46*%
G04 Gerber Fmt 4.6, Leading zero omitted, Abs format (unit mm)*
G04 Created by KiCad (PCBNEW 9.0.6) date 2025-12-24 12:46:37*
%MOMM*%
%LPD*%
G01*
G04 APERTURE LIST*
G04 Aperture macros list*
%AMRoundRect*
0 Rectangle with rounded corners*
0 $1 Rounding radius*
0 $2 $3 $4 $5 $6 $7 $8 $9 X,Y pos of 4 corners*
0 Add a 4 corners polygon primitive as box body*
4,1,4,$2,$3,$4,$5,$6,$7,$8,$9,$2,$3,0*
0 Add four circle primitives for the rounded corners*
1,1,$1+$1,$2,$3*
1,1,$1+$1,$4,$5*
1,1,$1+$1,$6,$7*
1,1,$1+$1,$8,$9*
0 Add four rect primitives between the rounded corners*
20,1,$1+$1,$2,$3,$4,$5,0*
20,1,$1+$1,$4,$5,$6,$7,0*
20,1,$1+$1,$6,$7,$8,$9,0*
20,1,$1+$1,$8,$9,$2,$3,0*%
G04 Aperture macros list end*
G04 #@! TA.AperFunction,ComponentPad*
%ADD10C,2.000000*%
G04 #@! TD*
G04 #@! TA.AperFunction,ComponentPad*
%ADD11R,4.000000X4.000000*%
G04 #@! TD*
G04 #@! TA.AperFunction,ComponentPad*
%ADD12RoundRect,0.500000X0.750000X-1.000000X0.750000X1.000000X-0.750000X1.000000X-0.750000X-1.000000X0*%
G04 #@! TD*
G04 #@! TA.AperFunction,ComponentPad*
%ADD13R,2.000000X1.905000*%
G04 #@! TD*
G04 #@! TA.AperFunction,ComponentPad*
%ADD14O,2.000000X1.905000*%
G04 #@! TD*
G04 #@! TA.AperFunction,ComponentPad*
%ADD15R,1.500000X1.500000*%
G04 #@! TD*
G04 #@! TA.AperFunction,ComponentPad*
%ADD16C,1.600000*%
G04 #@! TD*
G04 #@! TA.AperFunction,Conductor*
%ADD17C,0.800000*%
G04 #@! TD*
G04 APERTURE END LIST*
D10*
X5600000Y-6540000D03*
X5600000Y-9080000D03*
X5600000Y-11620000D03*
X5600000Y-14160000D03*
X5600000Y-16700000D03*
X5600000Y-19240000D03*
X5600000Y-21780000D03*
X5600000Y-24320000D03*
X5600000Y-26860000D03*
X5600000Y-29400000D03*
X5600000Y-31940000D03*
X5600000Y-34480000D03*
X5600000Y-37020000D03*
X5600000Y-39560000D03*
X5600000Y-42100000D03*
D11*
X20100000Y-30100000D03*
X20100000Y-47100000D03*
X60100000Y-47100000D03*
X60100000Y-30100000D03*
D12*
X55000000Y-4600000D03*
X20000000Y-4600000D03*
X27000000Y-4600000D03*
X34000000Y-4600000D03*
X41000000Y-4600000D03*
X48000000Y-4600000D03*
X62000000Y-4600000D03*
D13*
X57800000Y-14320000D03*
D14*
X57800000Y-16860000D03*
X57800000Y-19400000D03*
D13*
X30800000Y-14320000D03*
D14*
X30800000Y-16860000D03*
X30800000Y-19400000D03*
D13*
X44660000Y-14280000D03*
D14*
X44660000Y-16820000D03*
X44660000Y-19360000D03*
D15*
X18400000Y-16860000D03*
D16*
X18400000Y-19400000D03*
X18400000Y-14320000D03*
D17*
X59380000Y-14320000D02*
X57800000Y-14320000D01*
X60400000Y-15340000D02*
X59380000Y-14320000D01*
X60400000Y-20390000D02*
X60400000Y-15340000D01*
X50001000Y-33007685D02*
X50001000Y-30789000D01*
X11890315Y-40679000D02*
X42329686Y-40679000D01*
X9045657Y-19855815D02*
X9045657Y-37834343D01*
X5889842Y-16700000D02*
X9045657Y-19855815D01*
X50001000Y-30789000D02*
X60400000Y-20390000D01*
X5600000Y-16700000D02*
X5889842Y-16700000D01*
X42329686Y-40679000D02*
X50001000Y-33007685D01*
X9045657Y-37834343D02*
X11890315Y-40679000D01*
X66290000Y-40910000D02*
X66290000Y-8890000D01*
X60100000Y-47100000D02*
X66290000Y-40910000D01*
X66290000Y-8890000D02*
X62000000Y-4600000D01*
X6370000Y-19240000D02*
X5600000Y-19240000D01*
X7630000Y-20500000D02*
X6370000Y-19240000D01*
X7630000Y-38400000D02*
X7630000Y-20500000D01*
X11310000Y-42080000D02*
X7630000Y-38400000D01*
X43960000Y-42080000D02*
X11310000Y-42080000D01*
X62890000Y-21090659D02*
X52310000Y-31670659D01*
X57490000Y-10360000D02*
X62890000Y-15760000D01*
X52310000Y-31670659D02*
X52310000Y-33730000D01*
X53760000Y-10360000D02*
X57490000Y-10360000D01*
X52310000Y-33730000D02*
X43960000Y-42080000D01*
X62890000Y-15760000D02*
X62890000Y-21090659D01*
X48000000Y-4600000D02*
X53760000Y-10360000D01*
X43110000Y-4600000D02*
X41000000Y-4600000D01*
X55370000Y-16860000D02*
X43110000Y-4600000D01*
X57800000Y-16860000D02*
X55370000Y-16860000D01*
X37930000Y-6860000D02*
X39610000Y-8540000D01*
X39610000Y-8540000D02*
X43270000Y-8540000D01*
X43270000Y-8540000D02*
X54130000Y-19400000D01*
X39520000Y-1490000D02*
X37930000Y-3080000D01*
X37930000Y-3080000D02*
X37930000Y-6860000D01*
X58890000Y-1490000D02*
X39520000Y-1490000D01*
X54130000Y-19400000D02*
X57800000Y-19400000D01*
X34750000Y-4600000D02*
X34000000Y-4600000D01*
X36520000Y-6370000D02*
X34750000Y-4600000D01*
X36520000Y-13640000D02*
X36520000Y-6370000D01*
X39700000Y-16820000D02*
X36520000Y-13640000D01*
X44660000Y-16820000D02*
X39700000Y-16820000D01*
X46460000Y-14280000D02*
X44660000Y-14280000D01*
X48600000Y-32427372D02*
X48600000Y-16420000D01*
X10446657Y-37254029D02*
X12470628Y-39278000D01*
X10446657Y-17592444D02*
X10446657Y-37254029D01*
X12470628Y-39278000D02*
X41749372Y-39278000D01*
X7014213Y-14160000D02*
X10446657Y-17592444D01*
X41749372Y-39278000D02*
X48600000Y-32427372D01*
X5600000Y-14160000D02*
X7014213Y-14160000D01*
X48600000Y-16420000D02*
X46460000Y-14280000D01*
X31230000Y-14320000D02*
X30800000Y-14320000D01*
X34140000Y-17230000D02*
X31230000Y-14320000D01*
X30830000Y-37877000D02*
X34140000Y-34567000D01*
X13050942Y-37877000D02*
X30830000Y-37877000D01*
X11941971Y-36768029D02*
X13050942Y-37877000D01*
X11941971Y-17106445D02*
X11941971Y-36768029D01*
X5600000Y-11620000D02*
X6455526Y-11620000D01*
X6455526Y-11620000D02*
X11941971Y-17106445D01*
X34140000Y-34567000D02*
X34140000Y-17230000D01*
X40258687Y-19360000D02*
X44660000Y-19360000D01*
X30810000Y-9911313D02*
X40258687Y-19360000D01*
X30810000Y-3300000D02*
X30810000Y-9911313D01*
X58890000Y-1490000D02*
X32620000Y-1490000D01*
X32620000Y-1490000D02*
X30810000Y-3300000D01*
X25830000Y-19400000D02*
X30800000Y-19400000D01*
X23750000Y-17320000D02*
X25830000Y-19400000D01*
X23750000Y-3240000D02*
X23750000Y-17320000D01*
X25500000Y-1490000D02*
X23750000Y-3240000D01*
X58890000Y-1490000D02*
X25500000Y-1490000D01*
X59499000Y-2099000D02*
X58890000Y-1490000D01*
X2530000Y-4130000D02*
X5170000Y-1490000D01*
X5170000Y-1490000D02*
X26770000Y-1490000D01*
X2530000Y-7440000D02*
X2530000Y-4130000D01*
X4170000Y-9080000D02*
X2530000Y-7440000D01*
X5600000Y-9080000D02*
X4170000Y-9080000D01*
X21210000Y-28990000D02*
X20100000Y-30100000D01*
X21210000Y-18270000D02*
X21210000Y-28990000D01*
X19800000Y-16860000D02*
X21210000Y-18270000D01*
X18400000Y-16860000D02*
X19800000Y-16860000D01*
X21450000Y-6050000D02*
X20000000Y-4600000D01*
X19750000Y-16860000D02*
X21450000Y-15160000D01*
X21450000Y-15160000D02*
X21450000Y-6050000D01*
X18400000Y-16860000D02*
X19750000Y-16860000D01*
X2230000Y-44020000D02*
X5310000Y-47100000D01*
X2230000Y-11035787D02*
X2230000Y-44020000D01*
X4185787Y-9080000D02*
X2230000Y-11035787D01*
X5310000Y-47100000D02*
X20100000Y-47100000D01*
X5600000Y-9080000D02*
X4185787Y-9080000D01*
X62000000Y-4600000D02*
X59499000Y-2099000D01*
X20100000Y-47100000D02*
X60100000Y-47100000D01*
X64620000Y-25580000D02*
X60100000Y-30100000D01*
X55000000Y-4600000D02*
X64620000Y-14220000D01*
X64620000Y-14220000D02*
X64620000Y-25580000D01*
X28580000Y-16860000D02*
X27000000Y-15280000D01*
X30800000Y-16860000D02*
X28580000Y-16860000D01*
X27000000Y-15280000D02*
X27000000Y-4600000D01*
X11920000Y-6540000D02*
X5600000Y-6540000D01*
X18400000Y-13020000D02*
X11920000Y-6540000D01*
X18400000Y-14320000D02*
X18400000Y-13020000D01*
M02*
