  0
SECTION
  2
HEADER
  9
$ANGBASE
  50
0.0
  9
$ANGDIR
  70
1
  9
$MEASUREMENT
  70
0
  0
ENDSEC
  0
SECTION
  2
TABLES
  0
TABLE
  2
LTYPE
  70
4
  0
LTYPE
  5
40F
  2
CONTINUOUS
  70
0
  3
Solid line
  72
65
  73
0
  40
0.0
  0
LTYPE
  5
410
  2
DASHDOT
 70
0
  3
Dash Dot ____ _ ____ _
 72
65
 73
4
 40
2.0
 49
1.25
 49
-0.25
 49
0.25
 49
-0.25
  0
LTYPE
  5
411
  2
DASHED
 70
0
  3
Dashed __ __ __ __ __
 72
65
 73
2
 40
0.75
 49
0.5
 49
-0.25
  0
LTYPE
  5
43B
  2
DOTTED
 70
0
  3
Dotted .  .  .  .
 72
65
 73
2
 40
0.2
 49
0.0
 49
-0.2
  0
ENDTAB
  0
TABLE
  2
STYLE
  70
4
  0
STYLE
  2
KICAD
  70
0
  40
0
  41
1
  42
1
  50
0
  71
0
  3
isocp.shx
  0
STYLE
  2
KICADB
  70
0
  40
0
  41
1
  42
1
  50
0
  71
0
  3
isocp.shx
  0
STYLE
  2
KICADI
  70
0
  40
0
  41
1
  42
1
  50
15
  71
0
  3
isocp.shx
  0
STYLE
  2
KICADBI
  70
0
  40
0
  41
1
  42
1
  50
15
  71
0
  3
isocp.shx
  0
ENDTAB
  0
TABLE
  2
LAYER
  70
1
  0
LAYER
  2
BLACK
  70
0
  62
7
  6
CONTINUOUS
  0
ENDTAB
  0
ENDSEC
  0
SECTION
  2
ENTITIES
0
LINE
8
BLACK
6
CONTINUOUS
10
2.2287231102362206
20
0.0009093307086614
11
2.2292557874015748
21
0.0003766535433071
0
LINE
8
BLACK
6
CONTINUOUS
10
2.2292557874015748
20
0.0003766535433071
11
2.2293307086614171
21
0.
0
LINE
8
BLACK
6
CONTINUOUS
10
2.2293307086614171
20
0.
11
2.2293307086614171
21
-2.106299212598425
0
LINE
8
BLACK
6
CONTINUOUS
10
2.2293307086614171
20
-2.106299212598425
11
2.2292557874015748
21
-2.1066758661417322
0
LINE
8
BLACK
6
CONTINUOUS
10
2.2292557874015748
20
-2.1066758661417322
11
2.2287231102362206
21
-2.1072085433070864
0
LINE
8
BLACK
6
CONTINUOUS
10
2.2287231102362206
20
-2.1072085433070864
11
2.2283464566929134
21
-2.1072834645669292
0
LINE
8
BLACK
6
CONTINUOUS
10
2.2283464566929134
20
-2.1072834645669292
11
0.
21
-2.1072834645669292
0
LINE
8
BLACK
6
CONTINUOUS
10
0.
20
-2.1072834645669292
11
-0.0003766535433071
21
-2.1072085433070864
0
LINE
8
BLACK
6
CONTINUOUS
10
-0.0003766535433071
20
-2.1072085433070864
11
-0.0009093307086614
21
-2.1066758661417322
0
LINE
8
BLACK
6
CONTINUOUS
10
-0.0009093307086614
20
-2.1066758661417322
11
-0.0009842519685039
21
-2.106299212598425
0
LINE
8
BLACK
6
CONTINUOUS
10
-0.0009842519685039
20
-2.106299212598425
11
-0.0009842519685039
21
0.
0
LINE
8
BLACK
6
CONTINUOUS
10
-0.0009842519685039
20
0.
11
-0.0009093307086614
21
0.0003766535433071
0
LINE
8
BLACK
6
CONTINUOUS
10
-0.0009093307086614
20
0.0003766535433071
11
-0.0003766535433071
21
0.0009093307086614
0
LINE
8
BLACK
6
CONTINUOUS
10
-0.0003766535433071
20
0.0009093307086614
11
0.
21
0.0009842519685039
0
LINE
8
BLACK
6
CONTINUOUS
10
0.
20
0.0009842519685039
11
2.2283464566929134
21
0.0009842519685039
0
LINE
8
BLACK
6
CONTINUOUS
10
2.2283464566929134
20
0.0009842519685039
11
2.2287231102362206
21
0.0009093307086614
0
LINE
8
BLACK
6
CONTINUOUS
10
0.0009842519685039
20
-0.0009842519685039
11
0.0009842519685039
21
-2.1053149606299213
0
LINE
8
BLACK
6
CONTINUOUS
10
0.0009842519685039
20
-2.1053149606299213
11
2.2273622047244093
21
-2.1053149606299213
0
LINE
8
BLACK
6
CONTINUOUS
10
2.2273622047244093
20
-2.1053149606299213
11
2.2273622047244093
21
-0.0009842519685039
0
LINE
8
BLACK
6
CONTINUOUS
10
2.2273622047244093
20
-0.0009842519685039
11
0.0009842519685039
21
-0.0009842519685039
  0
ENDSEC
  0
EOF
