M48
; DRILL file {KiCad 9.0.6} date 2025-12-24T12:46:54+0530
; FORMAT={-:-/ absolute / metric / decimal}
; #@! TF.CreationDate,2025-12-24T12:46:54+05:30
; #@! TF.GenerationSoftware,Kicad,Pcbnew,9.0.6
; #@! TF.FileFunction,MixedPlating,1,2
FMAT,2
METRIC
; #@! TA.AperFunction,Plated,PTH,ComponentDrill
T1C0.800
; #@! TA.AperFunction,Plated,PTH,ComponentDrill
T2C1.000
; #@! TA.AperFunction,Plated,PTH,ComponentDrill
T3C1.100
%
G90
G05
T1
X18.4Y-14.32
X18.4Y-16.86
X18.4Y-19.4
T2
X5.6Y-6.54
X5.6Y-9.08
X5.6Y-11.62
X5.6Y-14.16
X5.6Y-16.7
X5.6Y-19.24
X5.6Y-21.78
X5.6Y-24.32
X5.6Y-26.86
X5.6Y-29.4
X5.6Y-31.94
X5.6Y-34.48
X5.6Y-37.02
X5.6Y-39.56
X5.6Y-42.1
X20.0Y-4.6
X20.1Y-30.1
X20.1Y-47.1
X27.0Y-4.6
X34.0Y-4.6
X41.0Y-4.6
X48.0Y-4.6
X55.0Y-4.6
X60.1Y-30.1
X60.1Y-47.1
X62.0Y-4.6
T3
X30.8Y-14.32
X30.8Y-16.86
X30.8Y-19.4
X44.66Y-14.28
X44.66Y-16.82
X44.66Y-19.36
X57.8Y-14.32
X57.8Y-16.86
X57.8Y-19.4
M30
